<svg width="16" height="16" viewBox="0 0 16 16" fill="none" xmlns="http://www.w3.org/2000/svg">
<path d="M6.00025 0.277334C6.09787 0.395951 6.15767 0.541116 6.17193 0.694073C6.18619 0.84703 6.15426 1.00075 6.08025 1.13537C5.50209 2.19689 5.20015 3.38676 5.20222 4.59551C5.20222 8.61668 8.48035 11.8728 12.5205 11.8728C13.0475 11.8728 13.5606 11.8178 14.0536 11.7128C14.2047 11.6801 14.3621 11.6926 14.5062 11.7488C14.6503 11.805 14.7746 11.9024 14.8636 12.0288C14.9576 12.1603 15.0055 12.3191 14.9999 12.4806C14.9943 12.6421 14.9355 12.7972 14.8326 12.9219C14.0483 13.8853 13.0588 14.6616 11.9363 15.1941C10.8139 15.7267 9.58672 16.002 8.34435 16C3.73416 16 0 12.2858 0 7.70964C0 4.2655 2.11409 1.31138 5.12421 0.0593244C5.27416 -0.00404638 5.44062 -0.0170529 5.59858 0.0222585C5.75655 0.06157 5.8975 0.151077 6.00025 0.277334V0.277334Z" fill="black"/>
<path d="M10.7942 3.14737C10.8085 3.10406 10.8361 3.06637 10.8731 3.03966C10.9101 3.01295 10.9546 2.99857 11.0002 2.99857C11.0458 2.99857 11.0903 3.01295 11.1272 3.03966C11.1642 3.06637 11.1918 3.10406 11.2062 3.14737L11.5932 4.30941C11.7662 4.82744 12.1722 5.23345 12.6903 5.40646L13.8523 5.79348C13.8956 5.80782 13.9333 5.83544 13.96 5.87242C13.9867 5.90941 14.0011 5.95387 14.0011 5.99949C14.0011 6.04511 13.9867 6.08956 13.96 6.12655C13.9333 6.16353 13.8956 6.19115 13.8523 6.20549L12.6903 6.59251C12.4348 6.67763 12.2026 6.82108 12.0122 7.0115C11.8218 7.20192 11.6783 7.43407 11.5932 7.68956L11.2062 8.8516C11.1918 8.89491 11.1642 8.9326 11.1272 8.95931C11.0903 8.98602 11.0458 9.0004 11.0002 9.0004C10.9546 9.0004 10.9101 8.98602 10.8731 8.95931C10.8361 8.9326 10.8085 8.89491 10.7942 8.8516L10.4072 7.68956C10.322 7.43407 10.1786 7.20192 9.98816 7.0115C9.79775 6.82108 9.5656 6.67763 9.31011 6.59251L8.14806 6.20549C8.10475 6.19115 8.06707 6.16353 8.04036 6.12655C8.01364 6.08956 7.99927 6.04511 7.99927 5.99949C7.99927 5.95387 8.01364 5.90941 8.04036 5.87242C8.06707 5.83544 8.10475 5.80782 8.14806 5.79348L9.31011 5.40646C9.5656 5.32134 9.79775 5.17789 9.98816 4.98747C10.1786 4.79705 10.322 4.5649 10.4072 4.30941L10.7942 3.14737V3.14737ZM13.8633 0.0982391C13.8732 0.0697642 13.8917 0.0450728 13.9162 0.0275978C13.9408 0.0101227 13.9702 0.000732422 14.0003 0.000732422C14.0304 0.000732422 14.0598 0.0101227 14.0844 0.0275978C14.1089 0.0450728 14.1274 0.0697642 14.1373 0.0982391L14.3953 0.872271C14.5103 1.21829 14.7813 1.4893 15.1274 1.6043L15.9014 1.86231C15.9299 1.87218 15.9546 1.89068 15.972 1.91524C15.9895 1.93979 15.9989 1.96918 15.9989 1.99932C15.9989 2.02946 15.9895 2.05884 15.972 2.0834C15.9546 2.10795 15.9299 2.12645 15.9014 2.13632L15.1274 2.39433C14.9568 2.45106 14.8019 2.54676 14.6748 2.67383C14.5477 2.8009 14.452 2.95585 14.3953 3.12637L14.1373 3.9004C14.1274 3.92887 14.1089 3.95356 14.0844 3.97104C14.0598 3.98851 14.0304 3.9979 14.0003 3.9979C13.9702 3.9979 13.9408 3.98851 13.9162 3.97104C13.8917 3.95356 13.8732 3.92887 13.8633 3.9004L13.6053 3.12637C13.5486 2.95585 13.4529 2.8009 13.3258 2.67383C13.1987 2.54676 13.0438 2.45106 12.8733 2.39433L12.0992 2.13632C12.0708 2.12645 12.0461 2.10795 12.0286 2.0834C12.0111 2.05884 12.0017 2.02946 12.0017 1.99932C12.0017 1.96918 12.0111 1.93979 12.0286 1.91524C12.0461 1.89068 12.0708 1.87218 12.0992 1.86231L12.8733 1.6043C13.2193 1.4893 13.4903 1.21829 13.6053 0.872271L13.8633 0.0992392V0.0982391Z" fill="black"/>
</svg>
